<svg xmlns="http://www.w3.org/2000/svg" width="109.106" height="103.943" viewBox="0 0 109.106 103.943"><path d="M223.363,165.907h30.083v30.8H223.363Z" transform="translate(-183.848 -129.327)" fill="#b1b1b1"/><path d="M222.6,206.763a14.846,14.846,0,0,0,0,29.684,1.6,1.6,0,0,1,1.116,2.668,1.471,1.471,0,0,1-1.062.464,15.185,15.185,0,0,1-2.823-.243v4.009a10.451,10.451,0,1,0,20.9,0,1.519,1.519,0,1,1,3.038,0,13.988,13.988,0,0,1-4.146,9.971,10.345,10.345,0,0,0,11.152,1.373,10.806,10.806,0,0,0,6.027-9.7V228.82H244.308a6.2,6.2,0,0,1-6.12-6.265V184.967a6.2,6.2,0,0,1,6.12-6.265H256.8V160.486a8.708,8.708,0,0,0-5.578-8.168,8.384,8.384,0,0,0-9.414,2.528,8.883,8.883,0,0,0-.945,9.922c.474.293.93.6,1.378.943a1.6,1.6,0,0,1,.319,2.194,1.506,1.506,0,0,1-2.139.326,14.241,14.241,0,0,0-18.266.883,15.1,15.1,0,0,0-2.9,18.486,1.592,1.592,0,0,1,.005,1.569,1.511,1.511,0,0,1-2.652,0c-.179-.316-.35-.64-.508-.966a10.067,10.067,0,0,0-5.542,6.441,10.355,10.355,0,0,0,1.266,8.487,10.011,10.011,0,0,0,2.489,2.636,17.115,17.115,0,0,1,8.285-2.134,1.567,1.567,0,0,1,0,3.134Zm26.294,26.362a1.531,1.531,0,1,1,3.061,0V237.7a1.531,1.531,0,1,1-3.061,0Zm0-63.3a1.531,1.531,0,1,1,3.061,0V174.4a1.531,1.531,0,1,1-3.061,0ZM229.52,189.668h4.465a1.566,1.566,0,0,1,0,3.131H229.52a1.566,1.566,0,0,1,0-3.131Zm0,25.059h4.465a1.566,1.566,0,0,1,0,3.131H229.52a1.566,1.566,0,0,1,0-3.131Z" transform="translate(-208.105 -151.782)" fill="#b1b1b1"/><path d="M220.9,166.518v37.589a3.1,3.1,0,0,0,3.061,3.134h36.711a3.1,3.1,0,0,0,3.059-3.134V166.518a3.1,3.1,0,0,0-3.059-3.131H223.963A3.1,3.1,0,0,0,220.9,166.518Zm3.315,1.828a1.55,1.55,0,0,1,1.531-1.567h33.142a1.55,1.55,0,0,1,1.531,1.567v33.934a1.55,1.55,0,0,1-1.531,1.567H225.748a1.55,1.55,0,0,1-1.531-1.567Z" transform="translate(-187.76 -133.333)" fill="#b1b1b1"/><path d="M265.636,203.625a17.092,17.092,0,0,1,8.285,2.131,10.3,10.3,0,0,0-.287-16.728,10.013,10.013,0,0,0-1.5-.837c-.161.326-.329.65-.508.969a1.513,1.513,0,0,1-2.662.008,1.594,1.594,0,0,1,.013-1.577,15.1,15.1,0,0,0-2.893-18.486,14.241,14.241,0,0,0-18.266-.883,1.5,1.5,0,0,1-1.523.181,1.557,1.557,0,0,1-.909-1.261A1.573,1.573,0,0,1,246,165.7c.448-.342.909-.653,1.38-.945a8.885,8.885,0,0,0-.953-9.911,8.39,8.39,0,0,0-9.411-2.528,8.717,8.717,0,0,0-5.584,8.158V178.7h12.493a6.2,6.2,0,0,1,6.12,6.265v37.589a6.2,6.2,0,0,1-6.12,6.265H231.435v16.166a10.8,10.8,0,0,0,6.019,9.7,10.332,10.332,0,0,0,11.144-1.373,13.991,13.991,0,0,1-4.133-9.971,1.533,1.533,0,1,1,3.066,0,10.74,10.74,0,0,0,5.2,9.318,10.232,10.232,0,0,0,10.478,0,10.738,10.738,0,0,0,5.2-9.318v-4.009a15.15,15.15,0,0,1-2.823.243,1.48,1.48,0,0,1-1.07-.461,1.583,1.583,0,0,1,1.111-2.67,14.846,14.846,0,0,0,.01-29.684,1.566,1.566,0,0,1,.005-3.131Zm-26.3-29.231a1.53,1.53,0,1,1-3.059,0V169.82a1.53,1.53,0,1,1,3.059,0Zm0,63.295a1.53,1.53,0,1,1-3.059,0v-4.571a1.53,1.53,0,1,1,3.059,0Zm19.377-19.838h-4.467a1.566,1.566,0,0,1,0-3.131h4.467a1.566,1.566,0,0,1,0,3.131Zm0-25.059h-4.467a1.566,1.566,0,0,1,0-3.131h4.467a1.566,1.566,0,0,1,0,3.131Z" transform="translate(-171.015 -151.775)" fill="#b1b1b1"/></svg>